<svg width="60" height="46" viewBox="0 0 60 46" fill="none" xmlns="http://www.w3.org/2000/svg">
<g clip-path="url(#clip0_214_731)">
<path d="M55.2036 6.49976H52.4678V9.32119H55.2036V6.49976Z" fill="url(#paint0_linear_214_731)"/>
<path d="M48.7312 3.36792H46.7246V5.43738H48.7312V3.36792Z" fill="url(#paint1_linear_214_731)"/>
<path d="M39.8012 6.26367H37.0654V9.08511H39.8012V6.26367Z" fill="url(#paint2_linear_214_731)"/>
<path d="M47.9604 9.32129H43.6699V13.7461H47.9604V9.32129Z" fill="url(#paint3_linear_214_731)"/>
<path d="M47.7315 16.282H45.3633V18.7243H47.7315V16.282Z" fill="url(#paint4_linear_214_731)"/>
<path d="M44.9651 20.4143H38.9512V26.6165H44.9651V20.4143Z" fill="url(#paint5_linear_214_731)"/>
<path d="M53.0221 22.9502H49.0088V27.0891H53.0221V22.9502Z" fill="url(#paint6_linear_214_731)"/>
<path d="M55.023 14.2124H51.0098V18.3513H55.023V14.2124Z" fill="url(#paint7_linear_214_731)"/>
<path d="M59.5005 19.0845H57.4697V21.1788H59.5005V19.0845Z" fill="url(#paint8_linear_214_731)"/>
<path d="M56.8483 31.2278H55.0225V33.1108H56.8483V31.2278Z" fill="url(#paint9_linear_214_731)"/>
<path d="M54.6553 36.0193H52.2871V38.4616H54.6553V36.0193Z" fill="url(#paint10_linear_214_731)"/>
<path d="M52.2871 31.2278H47.7314V35.926H52.2871V31.2278Z" fill="url(#paint11_linear_214_731)"/>
<path d="M47.183 35.8328H44.4473V38.6542H47.183V35.8328Z" fill="url(#paint12_linear_214_731)"/>
<path d="M55.6619 20.6445H53.6553V22.714H55.6619V20.6445Z" fill="url(#paint13_linear_214_731)"/>
<path d="M47.3516 26.6167H44.9834V29.059H47.3516V26.6167Z" fill="url(#paint14_linear_214_731)"/>
<path d="M44.9775 29.0588H42.6816V31.4266H44.9775V29.0588Z" fill="url(#paint15_linear_214_731)"/>
<path d="M41.4759 34.9504H35.5645V41.047H41.4759V34.9504Z" fill="url(#paint16_linear_214_731)"/>
<path d="M37.3185 28.0707V18.668H43.7783C43.2239 15.5047 42.0248 12.5714 40.3315 10.0172H36.0591V5.2382C32.3109 2.09982 27.5264 0.216797 22.3139 0.216797C10.2681 0.216797 0.5 10.2907 0.5 22.7137C0.5 35.1367 10.2681 45.2106 22.3139 45.2106C26.6044 45.2106 30.6056 43.9304 33.9801 41.7242V33.3655H41.5306V28.1018L37.3125 28.0707H37.3185ZM28.0145 8.04721H24.3688V4.28737H28.0145V8.04721ZM30.003 12.7455H27.6348V10.3031H30.003V12.7455ZM34.1067 10.3031H31.5517V7.66812H34.1067V10.3031ZM35.0166 28.3752H37.5716V31.0102H35.0166V28.3752ZM28.5447 34.1796H32.1904V37.9395H28.5447V34.1796ZM25.7186 38.4118H28.2736V41.0468H25.7186V38.4118ZM11.6661 23.1425C11.6661 17.0149 16.4868 12.0432 22.4284 12.0432C26.2127 12.0432 29.539 14.063 31.4613 17.1081V12.1675H37.4752V18.3697H32.1482C32.8171 19.8177 33.1907 21.4335 33.1907 23.1425C33.1907 23.4408 33.1787 23.7391 33.1546 24.0312H35.5589V27.9775H32.1181C30.3766 31.6814 26.6887 34.2418 22.4284 34.2418C16.4868 34.2418 11.6661 29.2701 11.6661 23.1425Z" fill="url(#paint17_linear_214_731)"/>
<path d="M55.2036 6.49976H52.4678V9.32119H55.2036V6.49976Z" fill="url(#paint18_linear_214_731)"/>
<path d="M48.7312 3.36792H46.7246V5.43738H48.7312V3.36792Z" fill="url(#paint19_linear_214_731)"/>
<path d="M39.8012 6.26367H37.0654V9.08511H39.8012V6.26367Z" fill="url(#paint20_linear_214_731)"/>
<path d="M47.9604 9.32129H43.6699V13.7461H47.9604V9.32129Z" fill="url(#paint21_linear_214_731)"/>
<path d="M47.7315 16.282H45.3633V18.7243H47.7315V16.282Z" fill="url(#paint22_linear_214_731)"/>
<path d="M44.9651 20.4143H38.9512V26.6165H44.9651V20.4143Z" fill="url(#paint23_linear_214_731)"/>
<path d="M53.0221 22.9502H49.0088V27.0891H53.0221V22.9502Z" fill="url(#paint24_linear_214_731)"/>
<path d="M55.023 14.2124H51.0098V18.3513H55.023V14.2124Z" fill="url(#paint25_linear_214_731)"/>
<path d="M59.5005 19.0845H57.4697V21.1788H59.5005V19.0845Z" fill="url(#paint26_linear_214_731)"/>
<path d="M56.8483 31.2278H55.0225V33.1108H56.8483V31.2278Z" fill="url(#paint27_linear_214_731)"/>
<path d="M54.6553 36.0193H52.2871V38.4616H54.6553V36.0193Z" fill="url(#paint28_linear_214_731)"/>
<path d="M52.2871 31.2278H47.7314V35.926H52.2871V31.2278Z" fill="url(#paint29_linear_214_731)"/>
<path d="M47.183 35.8328H44.4473V38.6542H47.183V35.8328Z" fill="url(#paint30_linear_214_731)"/>
<path d="M55.6619 20.6445H53.6553V22.714H55.6619V20.6445Z" fill="url(#paint31_linear_214_731)"/>
<path d="M47.3516 26.6167H44.9834V29.059H47.3516V26.6167Z" fill="url(#paint32_linear_214_731)"/>
<path d="M44.9775 29.0588H42.6816V31.4266H44.9775V29.0588Z" fill="url(#paint33_linear_214_731)"/>
<path d="M41.4759 34.9504H35.5645V41.047H41.4759V34.9504Z" fill="url(#paint34_linear_214_731)"/>
<path d="M37.3185 28.0707V18.668H43.7783C43.2239 15.5047 42.0248 12.5714 40.3315 10.0172H36.0591V5.2382C32.3109 2.09982 27.5264 0.216797 22.3139 0.216797C10.2681 0.216797 0.5 10.2907 0.5 22.7137C0.5 35.1367 10.2681 45.2106 22.3139 45.2106C26.6044 45.2106 30.6056 43.9304 33.9801 41.7242V33.3655H41.5306V28.1018L37.3125 28.0707H37.3185ZM28.0145 8.04721H24.3688V4.28737H28.0145V8.04721ZM30.003 12.7455H27.6348V10.3031H30.003V12.7455ZM34.1067 10.3031H31.5517V7.66812H34.1067V10.3031ZM35.0166 28.3752H37.5716V31.0102H35.0166V28.3752ZM28.5447 34.1796H32.1904V37.9395H28.5447V34.1796ZM25.7186 38.4118H28.2736V41.0468H25.7186V38.4118ZM11.6661 23.1425C11.6661 17.0149 16.4868 12.0432 22.4284 12.0432C26.2127 12.0432 29.539 14.063 31.4613 17.1081V12.1675H37.4752V18.3697H32.1482C32.8171 19.8177 33.1907 21.4335 33.1907 23.1425C33.1907 23.4408 33.1787 23.7391 33.1546 24.0312H35.5589V27.9775H32.1181C30.3766 31.6814 26.6887 34.2418 22.4284 34.2418C16.4868 34.2418 11.6661 29.2701 11.6661 23.1425Z" fill="url(#paint35_linear_214_731)"/>
</g>
<defs>
<linearGradient id="paint0_linear_214_731" x1="52.4678" y1="7.91047" x2="55.2036" y2="7.91047" gradientUnits="userSpaceOnUse">
<stop stop-color="#BC369D"/>
<stop offset="0.46" stop-color="#804AB0"/>
<stop offset="1" stop-color="#278FDE"/>
</linearGradient>
<linearGradient id="paint1_linear_214_731" x1="46.7246" y1="4.39955" x2="48.7312" y2="4.39955" gradientUnits="userSpaceOnUse">
<stop stop-color="#BC369D"/>
<stop offset="0.46" stop-color="#804AB0"/>
<stop offset="1" stop-color="#278FDE"/>
</linearGradient>
<linearGradient id="paint2_linear_214_731" x1="37.0654" y1="7.67439" x2="39.8012" y2="7.67439" gradientUnits="userSpaceOnUse">
<stop stop-color="#BC369D"/>
<stop offset="0.46" stop-color="#804AB0"/>
<stop offset="1" stop-color="#278FDE"/>
</linearGradient>
<linearGradient id="paint3_linear_214_731" x1="43.6699" y1="11.5337" x2="47.9604" y2="11.5337" gradientUnits="userSpaceOnUse">
<stop stop-color="#BC369D"/>
<stop offset="0.46" stop-color="#804AB0"/>
<stop offset="1" stop-color="#278FDE"/>
</linearGradient>
<linearGradient id="paint4_linear_214_731" x1="45.3633" y1="17.5" x2="47.7315" y2="17.5" gradientUnits="userSpaceOnUse">
<stop stop-color="#BC369D"/>
<stop offset="0.46" stop-color="#804AB0"/>
<stop offset="1" stop-color="#278FDE"/>
</linearGradient>
<linearGradient id="paint5_linear_214_731" x1="38.9512" y1="23.5154" x2="44.9651" y2="23.5154" gradientUnits="userSpaceOnUse">
<stop stop-color="#BC369D"/>
<stop offset="0.46" stop-color="#804AB0"/>
<stop offset="1" stop-color="#278FDE"/>
</linearGradient>
<linearGradient id="paint6_linear_214_731" x1="49.0088" y1="25.0197" x2="53.016" y2="25.0197" gradientUnits="userSpaceOnUse">
<stop stop-color="#BC369D"/>
<stop offset="0.46" stop-color="#804AB0"/>
<stop offset="1" stop-color="#278FDE"/>
</linearGradient>
<linearGradient id="paint7_linear_214_731" x1="51.0098" y1="16.2819" x2="55.023" y2="16.2819" gradientUnits="userSpaceOnUse">
<stop stop-color="#BC369D"/>
<stop offset="0.46" stop-color="#804AB0"/>
<stop offset="1" stop-color="#278FDE"/>
</linearGradient>
<linearGradient id="paint8_linear_214_731" x1="57.4697" y1="20.1347" x2="59.5005" y2="20.1347" gradientUnits="userSpaceOnUse">
<stop stop-color="#BC369D"/>
<stop offset="0.46" stop-color="#804AB0"/>
<stop offset="1" stop-color="#278FDE"/>
</linearGradient>
<linearGradient id="paint9_linear_214_731" x1="55.0225" y1="32.1662" x2="56.8423" y2="32.1662" gradientUnits="userSpaceOnUse">
<stop stop-color="#BC369D"/>
<stop offset="0.46" stop-color="#804AB0"/>
<stop offset="1" stop-color="#278FDE"/>
</linearGradient>
<linearGradient id="paint10_linear_214_731" x1="52.2871" y1="37.2436" x2="54.6553" y2="37.2436" gradientUnits="userSpaceOnUse">
<stop stop-color="#BC369D"/>
<stop offset="0.46" stop-color="#804AB0"/>
<stop offset="1" stop-color="#278FDE"/>
</linearGradient>
<linearGradient id="paint11_linear_214_731" x1="47.7314" y1="33.5769" x2="52.2871" y2="33.5769" gradientUnits="userSpaceOnUse">
<stop stop-color="#BC369D"/>
<stop offset="0.46" stop-color="#804AB0"/>
<stop offset="1" stop-color="#278FDE"/>
</linearGradient>
<linearGradient id="paint12_linear_214_731" x1="44.4473" y1="37.2435" x2="47.183" y2="37.2435" gradientUnits="userSpaceOnUse">
<stop stop-color="#BC369D"/>
<stop offset="0.46" stop-color="#804AB0"/>
<stop offset="1" stop-color="#278FDE"/>
</linearGradient>
<linearGradient id="paint13_linear_214_731" x1="53.6553" y1="21.6824" x2="55.6619" y2="21.6824" gradientUnits="userSpaceOnUse">
<stop stop-color="#BC369D"/>
<stop offset="0.46" stop-color="#804AB0"/>
<stop offset="1" stop-color="#278FDE"/>
</linearGradient>
<linearGradient id="paint14_linear_214_731" x1="44.9834" y1="27.841" x2="47.3516" y2="27.841" gradientUnits="userSpaceOnUse">
<stop stop-color="#BC369D"/>
<stop offset="0.46" stop-color="#804AB0"/>
<stop offset="1" stop-color="#278FDE"/>
</linearGradient>
<linearGradient id="paint15_linear_214_731" x1="42.6816" y1="30.2458" x2="44.9835" y2="30.2458" gradientUnits="userSpaceOnUse">
<stop stop-color="#BC369D"/>
<stop offset="0.46" stop-color="#804AB0"/>
<stop offset="1" stop-color="#278FDE"/>
</linearGradient>
<linearGradient id="paint16_linear_214_731" x1="35.5645" y1="37.9956" x2="41.4819" y2="37.9956" gradientUnits="userSpaceOnUse">
<stop stop-color="#BC369D"/>
<stop offset="0.46" stop-color="#804AB0"/>
<stop offset="1" stop-color="#278FDE"/>
</linearGradient>
<linearGradient id="paint17_linear_214_731" x1="0.5" y1="22.7137" x2="43.7783" y2="22.7137" gradientUnits="userSpaceOnUse">
<stop stop-color="#BC369D"/>
<stop offset="0.46" stop-color="#804AB0"/>
<stop offset="1" stop-color="#278FDE"/>
</linearGradient>
<linearGradient id="paint18_linear_214_731" x1="0.500041" y1="22.7137" x2="59.5001" y2="22.7137" gradientUnits="userSpaceOnUse">
<stop stop-color="#34D7B7"/>
<stop offset="0.51" stop-color="#30C4D1"/>
<stop offset="1" stop-color="#2EB4E6"/>
</linearGradient>
<linearGradient id="paint19_linear_214_731" x1="0.499586" y1="22.714" x2="59.4996" y2="22.714" gradientUnits="userSpaceOnUse">
<stop stop-color="#34D7B7"/>
<stop offset="0.51" stop-color="#30C4D1"/>
<stop offset="1" stop-color="#2EB4E6"/>
</linearGradient>
<linearGradient id="paint20_linear_214_731" x1="0.500007" y1="22.7138" x2="59.5" y2="22.7138" gradientUnits="userSpaceOnUse">
<stop stop-color="#34D7B7"/>
<stop offset="0.51" stop-color="#30C4D1"/>
<stop offset="1" stop-color="#2EB4E6"/>
</linearGradient>
<linearGradient id="paint21_linear_214_731" x1="0.500054" y1="22.7138" x2="59.5001" y2="22.7138" gradientUnits="userSpaceOnUse">
<stop stop-color="#34D7B7"/>
<stop offset="0.51" stop-color="#30C4D1"/>
<stop offset="1" stop-color="#2EB4E6"/>
</linearGradient>
<linearGradient id="paint22_linear_214_731" x1="0.500143" y1="22.7141" x2="59.5001" y2="22.7141" gradientUnits="userSpaceOnUse">
<stop stop-color="#34D7B7"/>
<stop offset="0.51" stop-color="#30C4D1"/>
<stop offset="1" stop-color="#2EB4E6"/>
</linearGradient>
<linearGradient id="paint23_linear_214_731" x1="0.499639" y1="22.7137" x2="59.4996" y2="22.7137" gradientUnits="userSpaceOnUse">
<stop stop-color="#34D7B7"/>
<stop offset="0.51" stop-color="#30C4D1"/>
<stop offset="1" stop-color="#2EB4E6"/>
</linearGradient>
<linearGradient id="paint24_linear_214_731" x1="0.499935" y1="22.714" x2="59.5" y2="22.714" gradientUnits="userSpaceOnUse">
<stop stop-color="#34D7B7"/>
<stop offset="0.51" stop-color="#30C4D1"/>
<stop offset="1" stop-color="#2EB4E6"/>
</linearGradient>
<linearGradient id="paint25_linear_214_731" x1="0.500295" y1="22.714" x2="59.5003" y2="22.714" gradientUnits="userSpaceOnUse">
<stop stop-color="#34D7B7"/>
<stop offset="0.51" stop-color="#30C4D1"/>
<stop offset="1" stop-color="#2EB4E6"/>
</linearGradient>
<linearGradient id="paint26_linear_214_731" x1="0.500426" y1="22.7138" x2="59.5005" y2="22.7138" gradientUnits="userSpaceOnUse">
<stop stop-color="#34D7B7"/>
<stop offset="0.51" stop-color="#30C4D1"/>
<stop offset="1" stop-color="#2EB4E6"/>
</linearGradient>
<linearGradient id="paint27_linear_214_731" x1="0.499759" y1="22.7138" x2="59.4997" y2="22.7138" gradientUnits="userSpaceOnUse">
<stop stop-color="#34D7B7"/>
<stop offset="0.51" stop-color="#30C4D1"/>
<stop offset="1" stop-color="#2EB4E6"/>
</linearGradient>
<linearGradient id="paint28_linear_214_731" x1="0.500164" y1="22.7138" x2="59.5002" y2="22.7138" gradientUnits="userSpaceOnUse">
<stop stop-color="#34D7B7"/>
<stop offset="0.51" stop-color="#30C4D1"/>
<stop offset="1" stop-color="#2EB4E6"/>
</linearGradient>
<linearGradient id="paint29_linear_214_731" x1="0.500081" y1="22.7138" x2="59.5001" y2="22.7138" gradientUnits="userSpaceOnUse">
<stop stop-color="#34D7B7"/>
<stop offset="0.51" stop-color="#30C4D1"/>
<stop offset="1" stop-color="#2EB4E6"/>
</linearGradient>
<linearGradient id="paint30_linear_214_731" x1="0.500062" y1="22.7137" x2="59.5001" y2="22.7137" gradientUnits="userSpaceOnUse">
<stop stop-color="#34D7B7"/>
<stop offset="0.51" stop-color="#30C4D1"/>
<stop offset="1" stop-color="#2EB4E6"/>
</linearGradient>
<linearGradient id="paint31_linear_214_731" x1="0.500412" y1="22.714" x2="59.5004" y2="22.714" gradientUnits="userSpaceOnUse">
<stop stop-color="#34D7B7"/>
<stop offset="0.51" stop-color="#30C4D1"/>
<stop offset="1" stop-color="#2EB4E6"/>
</linearGradient>
<linearGradient id="paint32_linear_214_731" x1="0.499896" y1="22.7139" x2="59.4999" y2="22.7139" gradientUnits="userSpaceOnUse">
<stop stop-color="#34D7B7"/>
<stop offset="0.51" stop-color="#30C4D1"/>
<stop offset="1" stop-color="#2EB4E6"/>
</linearGradient>
<linearGradient id="paint33_linear_214_731" x1="0.500078" y1="22.7137" x2="59.5" y2="22.7137" gradientUnits="userSpaceOnUse">
<stop stop-color="#34D7B7"/>
<stop offset="0.51" stop-color="#30C4D1"/>
<stop offset="1" stop-color="#2EB4E6"/>
</linearGradient>
<linearGradient id="paint34_linear_214_731" x1="0.499496" y1="22.7139" x2="59.4995" y2="22.7139" gradientUnits="userSpaceOnUse">
<stop stop-color="#34D7B7"/>
<stop offset="0.51" stop-color="#30C4D1"/>
<stop offset="1" stop-color="#2EB4E6"/>
</linearGradient>
<linearGradient id="paint35_linear_214_731" x1="0.5" y1="22.7137" x2="59.5" y2="22.7137" gradientUnits="userSpaceOnUse">
<stop stop-color="#34D7B7"/>
<stop offset="0.51" stop-color="#30C4D1"/>
<stop offset="1" stop-color="#2EB4E6"/>
</linearGradient>
<clipPath id="clip0_214_731">
<rect width="59" height="45" fill="white" transform="translate(0.5 0.216797)"/>
</clipPath>
</defs>
</svg>
