<svg width="30" height="31" viewBox="0 0 30 31" fill="none" xmlns="http://www.w3.org/2000/svg">
<path d="M8.75 20.7168C9.10417 20.7168 9.40125 20.5968 9.64125 20.3568C9.88125 20.1168 10.0008 19.8201 10 19.4668C9.99917 19.1135 9.87917 18.8168 9.64 18.5768C9.40083 18.3368 9.10417 18.2168 8.75 18.2168C8.39583 18.2168 8.09917 18.3368 7.86 18.5768C7.62083 18.8168 7.50083 19.1135 7.5 19.4668C7.49917 19.8201 7.61917 20.1172 7.86 20.358C8.10083 20.5989 8.3975 20.7185 8.75 20.7168ZM7.5 16.9668H10V10.7168H7.5V16.9668ZM12.5 19.4668H22.5V16.9668H12.5V19.4668ZM12.5 14.4668H22.5V11.9668H12.5V14.4668ZM5 25.7168C4.3125 25.7168 3.72417 25.4722 3.235 24.983C2.74583 24.4939 2.50083 23.9051 2.5 23.2168V8.2168C2.5 7.5293 2.745 6.94096 3.235 6.4518C3.725 5.96263 4.31333 5.71763 5 5.7168H25C25.6875 5.7168 26.2763 5.9618 26.7663 6.4518C27.2563 6.9418 27.5008 7.53013 27.5 8.2168V23.2168C27.5 23.9043 27.2554 24.493 26.7663 24.983C26.2771 25.473 25.6883 25.7176 25 25.7168H5ZM5 23.2168H25V8.2168H5V23.2168Z" fill="#8BB3FF"/>
</svg>
