<svg width="50" height="49" viewBox="0 0 50 49" fill="none" xmlns="http://www.w3.org/2000/svg">
<path d="M46.3895 38.9417C41.3952 39.2706 37.0951 35.4944 36.7662 30.5H36.681C37.0099 35.4944 33.2336 39.8066 28.2393 40.1355V40.3913C33.2336 40.0624 37.5458 43.8386 37.8626 48.833H37.9478C37.6189 43.8386 41.3952 39.5264 46.3895 39.1975V38.9417Z" fill="url(#paint0_linear_147_874)"/>
<path d="M43.6546 20.5209C32.9046 20.712 24.0355 12.1753 23.8429 1.45532L23.6628 1.44693C23.854 12.1969 15.3173 21.0661 4.59727 21.2586L4.57209 21.799C15.3221 21.6079 24.1912 30.1446 24.3838 40.8646L24.5639 40.873C24.3727 30.123 32.9095 21.2538 43.6295 21.0613L43.6546 20.5209Z" fill="url(#paint1_linear_147_874)"/>
<defs>
<linearGradient id="paint0_linear_147_874" x1="37.3144" y1="30.5" x2="37.3144" y2="48.833" gradientUnits="userSpaceOnUse">
<stop stop-color="white"/>
<stop offset="1" stop-color="#FF7B31"/>
</linearGradient>
<linearGradient id="paint1_linear_147_874" x1="25.0288" y1="1.51057" x2="23.1979" y2="40.8093" gradientUnits="userSpaceOnUse">
<stop stop-color="white"/>
<stop offset="1" stop-color="#FF7B31"/>
</linearGradient>
</defs>
</svg>
